<?xml version="1.0" encoding="UTF-8" standalone="no"?>
<!-- Created with Inkscape (http://www.inkscape.org/) -->

<svg
   xmlns:dc="http://purl.org/dc/elements/1.1/"
   xmlns:cc="http://creativecommons.org/ns#"
   xmlns:rdf="http://www.w3.org/1999/02/22-rdf-syntax-ns#"
   xmlns:svg="http://www.w3.org/2000/svg"
   xmlns="http://www.w3.org/2000/svg"
   xmlns:sodipodi="http://sodipodi.sourceforge.net/DTD/sodipodi-0.dtd"
   xmlns:inkscape="http://www.inkscape.org/namespaces/inkscape"
   width="230"
   height="62"
   viewBox="0 0 60.854173 16.404167"
   version="1.1"
   id="svg8"
   inkscape:version="0.92.1 r15371"
   sodipodi:docname="logo.svg"
   inkscape:export-filename="/home/redhound/Рабочий стол/Projects/DnnContra.LegalShield/logo/logo.png"
   inkscape:export-xdpi="96"
   inkscape:export-ydpi="96">
  <defs
     id="defs2" />
  <sodipodi:namedview
     id="base"
     pagecolor="#ffffff"
     bordercolor="#666666"
     borderopacity="1.0"
     inkscape:pageopacity="0.0"
     inkscape:pageshadow="2"
     inkscape:zoom="1.0700757"
     inkscape:cx="29.595946"
     inkscape:cy="-80.026817"
     inkscape:document-units="mm"
     inkscape:current-layer="layer1"
     showgrid="false"
     units="px"
     inkscape:window-width="1366"
     inkscape:window-height="716"
     inkscape:window-x="0"
     inkscape:window-y="25"
     inkscape:window-maximized="1"
     inkscape:snap-global="false"
     showguides="true"
     inkscape:guide-bbox="true"
     inkscape:snap-page="true">
    <sodipodi:guide
       position="59.663542,-1.190625"
       orientation="1,0"
       id="guide14364"
       inkscape:locked="false" />
    <sodipodi:guide
       position="16.933333,-6.8791667"
       orientation="1,0"
       id="guide14366"
       inkscape:locked="false" />
  </sodipodi:namedview>
  <metadata
     id="metadata5">
    <rdf:RDF>
      <cc:Work
         rdf:about="">
        <dc:format>image/svg+xml</dc:format>
        <dc:type
           rdf:resource="http://purl.org/dc/dcmitype/StillImage" />
        <dc:title />
      </cc:Work>
    </rdf:RDF>
  </metadata>
  <g
     inkscape:label="Layer 1"
     inkscape:groupmode="layer"
     id="layer1"
     transform="translate(0,-280.59583)">
    <text
       xml:space="preserve"
       style="font-style:normal;font-variant:normal;font-weight:normal;font-stretch:normal;font-size:7.25903368px;line-height:9.72192192px;font-family:'Open Sans';-inkscape-font-specification:'Open Sans';letter-spacing:0px;word-spacing:0px;fill:#4c4c4c;fill-opacity:1;stroke:none;stroke-width:0.38887689px;stroke-linecap:butt;stroke-linejoin:miter;stroke-opacity:1;"
       x="15.658685"
       y="299.49924"
       id="text16635"
       transform="scale(1.0410859,0.96053549)"><tspan
         sodipodi:role="line"
         id="tspan16633"
         x="15.658685"
         y="299.49924"
         style="font-style:normal;font-variant:normal;font-weight:bold;font-stretch:normal;font-family:'Open Sans';-inkscape-font-specification:'Open Sans Bold';stroke-width:0.38887689px;fill:#4c4c4c;">ПРАВОВОЙ</tspan></text>
    <text
       xml:space="preserve"
       style="font-style:normal;font-variant:normal;font-weight:normal;font-stretch:normal;font-size:12.14758396px;line-height:16.26908302px;font-family:'Open Sans';-inkscape-font-specification:'Open Sans';letter-spacing:0px;word-spacing:0px;fill:#ff5722;fill-opacity:1;stroke:none;stroke-width:0.10010935;stroke-linecap:butt;stroke-linejoin:miter;stroke-miterlimit:4;stroke-dasharray:none;stroke-opacity:1"
       x="9.4848738"
       y="497.616"
       id="text16639"
       transform="scale(1.6998937,0.58827209)"><tspan
         sodipodi:role="line"
         id="tspan16637"
         x="9.4848738"
         y="497.616"
         style="font-style:normal;font-variant:normal;font-weight:normal;font-stretch:normal;font-family:'DejaVu Serif';-inkscape-font-specification:'DejaVu Serif';fill:#ff5722;fill-opacity:1;stroke:none;stroke-width:0.10010935;stroke-miterlimit:4;stroke-dasharray:none">щит</tspan></text>
    <text
       xml:space="preserve"
       style="font-style:normal;font-variant:normal;font-weight:normal;font-stretch:normal;font-size:2.61500263px;line-height:4.90313005px;font-family:'Open Sans';-inkscape-font-specification:'Open Sans';letter-spacing:0px;word-spacing:0px;fill:#333333;fill-opacity:1;stroke:none;stroke-width:0.19612524px;stroke-linecap:butt;stroke-linejoin:miter;stroke-opacity:1"
       x="15.377492"
       y="321.78635"
       id="text16643"
       transform="scale(1.0874562,0.91957728)"><tspan
         sodipodi:role="line"
         id="tspan16641"
         x="15.377492"
         y="321.78635"
         style="font-style:normal;font-variant:normal;font-weight:normal;font-stretch:normal;font-family:'Open Sans';-inkscape-font-specification:'Open Sans';fill:#333333;stroke-width:0.19612524px">экспертно-юридический центр</tspan></text>
    <path
       style="opacity:1;fill:none;fill-opacity:1;stroke:#ff5722;stroke-width:1.5;stroke-linecap:round;stroke-linejoin:round;stroke-miterlimit:4;stroke-dasharray:none;stroke-dashoffset:0;stroke-opacity:1"
       d="m 7.2828491,296.11372 c -0.6942837,-0.21703 -1.9502815,-1.06188 -2.7781519,-1.86873 -1.1015861,-1.07362 -2.0465027,-2.44991 -2.5444885,-3.70607 -0.086766,-0.21888 -0.1771732,-0.42781 -0.2009042,-0.46427 -0.023731,-0.0365 -0.1119425,-0.29018 -0.1960251,-0.56376 -0.084083,-0.27359 -0.1769213,-0.55711 -0.2063081,-0.63008 -0.054612,-0.13558 -0.088489,-0.27933 -0.203189,-0.8622 -0.15914788,-0.80875 -0.19974719,-1.19499 -0.23434373,-2.22941 -0.0357403,-1.06865 -0.0322565,-1.10894 0.11537573,-1.33416 0.2078779,-0.31713 0.4617873,-0.4777 1.2998476,-0.82204 0.3940569,-0.16192 0.8060042,-0.33582 0.9154385,-0.38644 0.1094343,-0.0505 0.4377368,-0.18666 0.7295615,-0.30226 0.2918244,-0.11563 0.6499728,-0.2646 0.7958852,-0.33108 0.1459122,-0.0664 0.5040605,-0.21564 0.7958853,-0.33149 0.2918244,-0.11586 0.688005,-0.28259 0.8804012,-0.37051 0.4962794,-0.22682 1.1085576,-0.4255 1.3112635,-0.4255 0.1612663,0 1.3016707,0.41749 1.9615933,0.7181 0.1597384,0.0727 0.5292006,0.22716 0.8210236,0.34308 0.291825,0.11592 0.649974,0.26514 0.795886,0.33162 0.145912,0.0664 0.504061,0.21563 0.795886,0.33149 0.291824,0.11585 0.688164,0.28266 0.880755,0.37068 0.192589,0.088 0.363319,0.16003 0.379396,0.16003 0.01608,0 0.192958,0.0748 0.393071,0.16644 0.371822,0.17007 0.612613,0.42504 0.763736,0.80869 0.14328,0.36376 0.01734,2.28583 -0.220738,3.36907 -0.523661,2.3826 -1.654898,4.4737 -3.28299,6.06864 -1.0860453,1.06393 -2.682907,2.05877 -3.2905995,2.05002 -0.1094341,-0.002 -0.3242045,-0.042 -0.4772674,-0.0899 z"
       id="path16752"
       inkscape:connector-curvature="0"
       sodipodi:nodetypes="ccccccsscccccccscccccscccccc" />
    <g
       id="g16767"
       transform="matrix(0.21386996,0,0,0.21386996,-2.0004025,219.38648)"
       style="fill:#666666">
      <path
         transform="matrix(0.26458333,0,0,0.26458333,0,278.47916)"
         inkscape:connector-curvature="0"
         id="path16758"
         d="m 126.39335,223.54007 c -0.73535,-0.45864 -1.5791,-1.36524 -1.875,-2.01467 -0.69213,-1.51906 -0.69353,-5.74529 -0.002,-7.26214 1.17737,-2.58404 1.32665,-2.60355 21.96442,-2.87158 l 19.25,-0.25 0.12861,-32.61299 0.12862,-32.61299 -1.94272,-0.99111 c -2.0319,-1.03659 -5.43354,-4.55392 -6.37578,-6.59263 -0.30257,-0.65465 -0.91517,-2.03403 -1.36134,-3.06528 l -0.81121,-1.875 H 141.691 c -14.98731,0 -15.93836,-0.15822 -17.16763,-2.85616 -0.69902,-1.53419 -0.69902,-5.75348 0,-7.28768 1.24737,-2.73767 2.02777,-2.85616 18.81146,-2.85616 h 15.44977 l 1.72308,-1.79464 c 3.67499,-3.82762 9.99455,-5.81409 15.12512,-4.75439 3.82149,0.78931 5.19121,1.49539 8.35931,4.30911 l 2.52204,2.23992 15.35831,0.002 c 14.34129,0.002 15.46412,0.0664 16.95618,0.97615 1.84349,1.12405 2.41443,3.11625 2.03243,7.0918 -0.16095,1.67506 -0.60268,2.87502 -1.32407,3.59691 -1.05291,1.05363 -1.47722,1.08728 -15.50344,1.22961 l -14.42091,0.14633 -1.35615,3.19091 c -1.29938,3.05733 -5.21624,7.47418 -8.04395,9.07076 -0.95703,0.54037 -0.98536,1.34719 -1.1236,32 -0.078,17.29512 -0.0174,31.95191 0.13453,32.57066 l 0.27634,1.125 18.86547,0.002 c 17.81764,0.002 18.95423,0.056 20.46335,0.97615 1.84349,1.12405 2.41443,3.11625 2.03243,7.0918 -0.16103,1.67591 -0.60251,2.87465 -1.32469,3.59691 l -1.08316,1.08327 -45.36123,0.11615 c -41.60561,0.10653 -45.47192,0.0471 -46.69823,-0.71776 z"
         style="opacity:1;fill:#666666;fill-opacity:1;stroke:none;stroke-width:2.5;stroke-linecap:round;stroke-linejoin:round;stroke-miterlimit:4;stroke-dasharray:none;stroke-dashoffset:0;stroke-opacity:1" />
      <path
         transform="matrix(0.26458333,0,0,0.26458333,0,278.47916)"
         inkscape:connector-curvature="0"
         id="path16760"
         d="m 207.23036,202.63334 c -12.1783,-2.26221 -20.25,-8.98997 -20.25,-16.87834 0,-1.83742 19.10362,-39.95279 20.83695,-41.57368 3.67008,-3.43202 9.96163,-3.35346 13.52622,0.1689 2.39386,2.3655 19.99703,37.38197 20.44862,40.67668 0.83439,6.08753 -3.69583,11.84983 -12.0505,15.32789 -6.68553,2.7832 -15.17096,3.64208 -22.51129,2.27855 z M 230.246,182.86636 c 0.39627,-0.64116 -14.76971,-31.07814 -15.62144,-31.35108 -0.36917,-0.1183 -3.65524,5.90229 -8.41268,15.41334 -5.98276,11.9607 -7.65204,15.70564 -7.1442,16.02761 1.00293,0.63586 30.78285,0.55003 31.17832,-0.0899 z"
         style="opacity:1;fill:#666666;fill-opacity:1;stroke:none;stroke-width:2.5;stroke-linecap:round;stroke-linejoin:round;stroke-miterlimit:4;stroke-dasharray:none;stroke-dashoffset:0;stroke-opacity:1" />
      <path
         transform="matrix(0.26458333,0,0,0.26458333,0,278.47916)"
         inkscape:connector-curvature="0"
         id="path16762"
         d="m 123.23036,202.63334 c -12.1783,-2.26221 -20.25,-8.98997 -20.25,-16.87834 0,-1.83742 19.10362,-39.95279 20.83695,-41.57368 3.67008,-3.43202 9.96163,-3.35346 13.52622,0.1689 2.39386,2.3655 19.99703,37.38197 20.44862,40.67668 0.83439,6.08753 -3.69583,11.84983 -12.0505,15.32789 -6.68553,2.7832 -15.17096,3.64208 -22.51129,2.27855 z M 146.246,182.86636 c 0.39627,-0.64116 -14.76971,-31.07814 -15.62144,-31.35108 -0.36917,-0.1183 -3.65524,5.90229 -8.41268,15.41334 -5.98276,11.9607 -7.65204,15.70564 -7.1442,16.02761 1.00293,0.63586 30.78285,0.55003 31.17832,-0.0899 z"
         style="opacity:1;fill:#666666;fill-opacity:1;stroke:none;stroke-width:2.5;stroke-linecap:round;stroke-linejoin:round;stroke-miterlimit:4;stroke-dasharray:none;stroke-dashoffset:0;stroke-opacity:1" />
    </g>
  </g>
</svg>
